<mxfile host="app.diagrams.net" modified="2022-03-09T11:09:21.262Z" agent="5.0 (Windows)" etag="C_QgRzZHQ31vYxpDL0-t" version="17.0.0" type="github">
  <diagram id="_2V6tov_1XNhAvtXk-O3" name="Page-1">
    <mxGraphModel dx="810" dy="896" grid="1" gridSize="10" guides="1" tooltips="1" connect="1" arrows="1" fold="1" page="1" pageScale="1" pageWidth="850" pageHeight="1100" math="0" shadow="0">
      <root>
        <mxCell id="0" />
        <mxCell id="1" parent="0" />
        <mxCell id="ydcztmO6JAIKfTTMtu_i-43" style="edgeStyle=orthogonalEdgeStyle;rounded=0;orthogonalLoop=1;jettySize=auto;html=1;exitX=0.855;exitY=0.145;exitDx=0;exitDy=0;exitPerimeter=0;entryX=0;entryY=0.5;entryDx=0;entryDy=0;strokeWidth=3;" edge="1" parent="1" source="ydcztmO6JAIKfTTMtu_i-3" target="ydcztmO6JAIKfTTMtu_i-9">
          <mxGeometry relative="1" as="geometry" />
        </mxCell>
        <mxCell id="ydcztmO6JAIKfTTMtu_i-44" style="edgeStyle=orthogonalEdgeStyle;rounded=0;orthogonalLoop=1;jettySize=auto;html=1;exitX=0.855;exitY=0.855;exitDx=0;exitDy=0;exitPerimeter=0;entryX=0;entryY=0.5;entryDx=0;entryDy=0;strokeWidth=3;" edge="1" parent="1" source="ydcztmO6JAIKfTTMtu_i-3" target="ydcztmO6JAIKfTTMtu_i-7">
          <mxGeometry relative="1" as="geometry" />
        </mxCell>
        <mxCell id="ydcztmO6JAIKfTTMtu_i-3" value="" style="strokeWidth=2;html=1;shape=mxgraph.flowchart.start_2;whiteSpace=wrap;" vertex="1" parent="1">
          <mxGeometry x="50" y="200" width="30" height="30" as="geometry" />
        </mxCell>
        <mxCell id="ydcztmO6JAIKfTTMtu_i-4" value="" style="strokeWidth=2;html=1;shape=mxgraph.flowchart.start_2;whiteSpace=wrap;" vertex="1" parent="1">
          <mxGeometry x="425" y="460" width="50" height="50" as="geometry" />
        </mxCell>
        <mxCell id="ydcztmO6JAIKfTTMtu_i-5" value="" style="strokeWidth=2;html=1;shape=mxgraph.flowchart.start_2;whiteSpace=wrap;fillColor=#000000;" vertex="1" parent="1">
          <mxGeometry x="435" y="470" width="30" height="30" as="geometry" />
        </mxCell>
        <mxCell id="ydcztmO6JAIKfTTMtu_i-47" style="edgeStyle=orthogonalEdgeStyle;rounded=0;orthogonalLoop=1;jettySize=auto;html=1;exitX=0.5;exitY=1;exitDx=0;exitDy=0;entryX=0;entryY=0.5;entryDx=0;entryDy=0;entryPerimeter=0;strokeWidth=3;" edge="1" parent="1" source="ydcztmO6JAIKfTTMtu_i-7" target="ydcztmO6JAIKfTTMtu_i-4">
          <mxGeometry relative="1" as="geometry" />
        </mxCell>
        <mxCell id="ydcztmO6JAIKfTTMtu_i-7" value="&lt;div&gt;&lt;font size=&quot;3&quot;&gt;&lt;font style=&quot;font-size: 24px&quot;&gt;move_&lt;/font&gt;&lt;/font&gt;&lt;/div&gt;&lt;div&gt;&lt;font size=&quot;3&quot;&gt;&lt;font style=&quot;font-size: 24px&quot;&gt;character&lt;/font&gt;&lt;/font&gt;&lt;/div&gt;" style="rounded=1;whiteSpace=wrap;html=1;fillColor=#FFFFFF;strokeWidth=3;" vertex="1" parent="1">
          <mxGeometry x="160" y="245" width="150" height="60" as="geometry" />
        </mxCell>
        <mxCell id="ydcztmO6JAIKfTTMtu_i-8" style="edgeStyle=orthogonalEdgeStyle;rounded=0;orthogonalLoop=1;jettySize=auto;html=1;exitX=1;exitY=0.5;exitDx=0;exitDy=0;entryX=0;entryY=0.5;entryDx=0;entryDy=0;fontSize=24;strokeWidth=3;" edge="1" parent="1" source="ydcztmO6JAIKfTTMtu_i-9" target="ydcztmO6JAIKfTTMtu_i-13">
          <mxGeometry relative="1" as="geometry" />
        </mxCell>
        <mxCell id="ydcztmO6JAIKfTTMtu_i-9" value="&lt;font size=&quot;3&quot;&gt;&lt;font style=&quot;font-size: 24px&quot;&gt;enter_vehicle&lt;/font&gt;&lt;/font&gt;" style="rounded=1;whiteSpace=wrap;html=1;fillColor=#FFFFFF;strokeWidth=3;" vertex="1" parent="1">
          <mxGeometry x="160" y="130" width="150" height="60" as="geometry" />
        </mxCell>
        <mxCell id="ydcztmO6JAIKfTTMtu_i-12" style="edgeStyle=orthogonalEdgeStyle;rounded=0;orthogonalLoop=1;jettySize=auto;html=1;exitX=1;exitY=0.5;exitDx=0;exitDy=0;entryX=0;entryY=0.5;entryDx=0;entryDy=0;strokeWidth=3;" edge="1" parent="1" source="ydcztmO6JAIKfTTMtu_i-13" target="ydcztmO6JAIKfTTMtu_i-15">
          <mxGeometry relative="1" as="geometry" />
        </mxCell>
        <mxCell id="ydcztmO6JAIKfTTMtu_i-13" value="&lt;div&gt;&lt;font size=&quot;3&quot;&gt;&lt;font style=&quot;font-size: 24px&quot;&gt;let_in&lt;/font&gt;&lt;/font&gt;&lt;/div&gt;" style="rounded=1;whiteSpace=wrap;html=1;fillColor=#FFFFFF;strokeWidth=3;" vertex="1" parent="1">
          <mxGeometry x="370" y="130" width="160" height="60" as="geometry" />
        </mxCell>
        <mxCell id="ydcztmO6JAIKfTTMtu_i-36" style="edgeStyle=orthogonalEdgeStyle;rounded=0;orthogonalLoop=1;jettySize=auto;html=1;exitX=0.5;exitY=1;exitDx=0;exitDy=0;entryX=0.5;entryY=0;entryDx=0;entryDy=0;strokeWidth=3;" edge="1" parent="1" source="ydcztmO6JAIKfTTMtu_i-15" target="ydcztmO6JAIKfTTMtu_i-23">
          <mxGeometry relative="1" as="geometry" />
        </mxCell>
        <mxCell id="ydcztmO6JAIKfTTMtu_i-15" value="&lt;div&gt;&lt;font size=&quot;3&quot;&gt;&lt;font style=&quot;font-size: 24px&quot;&gt;drive&lt;/font&gt;&lt;/font&gt;&lt;/div&gt;" style="rounded=1;whiteSpace=wrap;html=1;fillColor=#FFFFFF;strokeWidth=3;" vertex="1" parent="1">
          <mxGeometry x="590" y="130" width="160" height="60" as="geometry" />
        </mxCell>
        <mxCell id="ydcztmO6JAIKfTTMtu_i-18" style="edgeStyle=orthogonalEdgeStyle;rounded=0;orthogonalLoop=1;jettySize=auto;html=1;exitX=0;exitY=0.5;exitDx=0;exitDy=0;entryX=1;entryY=0.5;entryDx=0;entryDy=0;strokeWidth=3;" edge="1" parent="1" source="ydcztmO6JAIKfTTMtu_i-23" target="ydcztmO6JAIKfTTMtu_i-25">
          <mxGeometry relative="1" as="geometry" />
        </mxCell>
        <mxCell id="ydcztmO6JAIKfTTMtu_i-41" style="edgeStyle=orthogonalEdgeStyle;rounded=0;orthogonalLoop=1;jettySize=auto;html=1;exitX=0.5;exitY=1;exitDx=0;exitDy=0;entryX=0.5;entryY=0;entryDx=0;entryDy=0;strokeWidth=3;" edge="1" parent="1" source="ydcztmO6JAIKfTTMtu_i-23" target="ydcztmO6JAIKfTTMtu_i-40">
          <mxGeometry relative="1" as="geometry" />
        </mxCell>
        <mxCell id="ydcztmO6JAIKfTTMtu_i-23" value="&lt;div&gt;&lt;font size=&quot;3&quot;&gt;&lt;font style=&quot;font-size: 24px&quot;&gt;move_vehicle&lt;/font&gt;&lt;/font&gt;&lt;/div&gt;" style="rounded=1;whiteSpace=wrap;html=1;fillColor=#FFFFFF;strokeWidth=3;" vertex="1" parent="1">
          <mxGeometry x="590" y="240" width="160" height="60" as="geometry" />
        </mxCell>
        <mxCell id="ydcztmO6JAIKfTTMtu_i-42" style="edgeStyle=orthogonalEdgeStyle;rounded=0;orthogonalLoop=1;jettySize=auto;html=1;exitX=0.5;exitY=1;exitDx=0;exitDy=0;entryX=0.5;entryY=0;entryDx=0;entryDy=0;strokeWidth=3;" edge="1" parent="1" source="ydcztmO6JAIKfTTMtu_i-25" target="ydcztmO6JAIKfTTMtu_i-37">
          <mxGeometry relative="1" as="geometry" />
        </mxCell>
        <mxCell id="ydcztmO6JAIKfTTMtu_i-25" value="&lt;div&gt;&lt;font size=&quot;3&quot;&gt;&lt;font style=&quot;font-size: 24px&quot;&gt;exit&lt;/font&gt;&lt;/font&gt;&lt;/div&gt;" style="rounded=1;whiteSpace=wrap;html=1;fillColor=#FFFFFF;strokeWidth=3;" vertex="1" parent="1">
          <mxGeometry x="370" y="240" width="160" height="60" as="geometry" />
        </mxCell>
        <mxCell id="ydcztmO6JAIKfTTMtu_i-45" style="edgeStyle=orthogonalEdgeStyle;rounded=0;orthogonalLoop=1;jettySize=auto;html=1;exitX=0.5;exitY=1;exitDx=0;exitDy=0;entryX=0.5;entryY=0;entryDx=0;entryDy=0;entryPerimeter=0;strokeWidth=3;" edge="1" parent="1" source="ydcztmO6JAIKfTTMtu_i-37" target="ydcztmO6JAIKfTTMtu_i-4">
          <mxGeometry relative="1" as="geometry" />
        </mxCell>
        <mxCell id="ydcztmO6JAIKfTTMtu_i-37" value="&lt;div&gt;&lt;font size=&quot;3&quot;&gt;&lt;font style=&quot;font-size: 24px&quot;&gt;let_out&lt;/font&gt;&lt;/font&gt;&lt;/div&gt;" style="rounded=1;whiteSpace=wrap;html=1;fillColor=#FFFFFF;strokeWidth=3;" vertex="1" parent="1">
          <mxGeometry x="370" y="350" width="160" height="60" as="geometry" />
        </mxCell>
        <mxCell id="ydcztmO6JAIKfTTMtu_i-46" style="edgeStyle=orthogonalEdgeStyle;rounded=0;orthogonalLoop=1;jettySize=auto;html=1;exitX=0.5;exitY=1;exitDx=0;exitDy=0;entryX=1;entryY=0.5;entryDx=0;entryDy=0;entryPerimeter=0;strokeWidth=3;" edge="1" parent="1" source="ydcztmO6JAIKfTTMtu_i-40" target="ydcztmO6JAIKfTTMtu_i-4">
          <mxGeometry relative="1" as="geometry" />
        </mxCell>
        <mxCell id="ydcztmO6JAIKfTTMtu_i-40" value="&lt;div&gt;&lt;font size=&quot;3&quot;&gt;&lt;font style=&quot;font-size: 24px&quot;&gt;use_fuel&lt;/font&gt;&lt;/font&gt;&lt;/div&gt;" style="rounded=1;whiteSpace=wrap;html=1;fillColor=#FFFFFF;strokeWidth=3;" vertex="1" parent="1">
          <mxGeometry x="590" y="350" width="160" height="60" as="geometry" />
        </mxCell>
      </root>
    </mxGraphModel>
  </diagram>
</mxfile>
